HIERARCHY
ROOT Hips
{
  OFFSET 196.326 95.9168 97.7182
  CHANNELS 6 Xposition Yposition Zposition Zrotation Xrotation Yrotation
  JOINT LeftUpLeg
  {
    OFFSET 8.64259 1.95398 -2.38835
    CHANNELS 3 Zrotation Xrotation Yrotation
    JOINT LeftLeg
    {
      OFFSET 43.7702 0 0
      CHANNELS 3 Zrotation Xrotation Yrotation
      JOINT LeftFoot
      {
        OFFSET 40.6238 0 0
        CHANNELS 3 Zrotation Xrotation Yrotation
        JOINT LeftToeBase
        {
          OFFSET 12.7242 0 0
          CHANNELS 3 Zrotation Xrotation Yrotation
          End Site
          {
            OFFSET 0 0 0
          }
        }
      }
    }
  }
  JOINT RightUpLeg
  {
    OFFSET -8.2249 1.95398 -2.59336
    CHANNELS 3 Zrotation Xrotation Yrotation
    JOINT RightLeg
    {
      OFFSET 43.5653 0 0
      CHANNELS 3 Zrotation Xrotation Yrotation
      JOINT RightFoot
      {
        OFFSET 40.6238 0 0
        CHANNELS 3 Zrotation Xrotation Yrotation
        JOINT RightToeBase
        {
          OFFSET 12.7242 0 0
          CHANNELS 3 Zrotation Xrotation Yrotation
          End Site
          {
            OFFSET 0 0 0
          }
        }
      }
    }
  }
  JOINT Spine
  {
    OFFSET 0.165834 0.87714 6.61349
    CHANNELS 3 Zrotation Xrotation Yrotation
    JOINT Spine1
    {
      OFFSET 7.38963 1.71661e-005 0
      CHANNELS 3 Zrotation Xrotation Yrotation
      JOINT Spine2
      {
        OFFSET 11.9445 1.14441e-005 0
        CHANNELS 3 Zrotation Xrotation Yrotation
        JOINT Spine3
        {
          OFFSET 14.7254 4.19617e-005 0
          CHANNELS 3 Zrotation Xrotation Yrotation
          JOINT Spine4
          {
            OFFSET 10.9679 0 0
            CHANNELS 3 Zrotation Xrotation Yrotation
            JOINT RightShoulder
            {
              OFFSET 2.46616 -1.6653 3.69651
              CHANNELS 3 Zrotation Xrotation Yrotation
              JOINT RightArm
              {
                OFFSET 13.0012 0 0
                CHANNELS 3 Zrotation Xrotation Yrotation
                JOINT RightForeArm
                {
                  OFFSET 28.7848 1.52588e-005 0
                  CHANNELS 3 Zrotation Xrotation Yrotation
                  JOINT RightHand
                  {
                    OFFSET 26.5688 1.52588e-005 0
                    CHANNELS 3 Zrotation Xrotation Yrotation
                    End Site
                    {
                      OFFSET 0 0 0
                    }
                  }
                }
              }
            }
            JOINT LeftShoulder
            {
              OFFSET 2.38034 -1.29275 -3.75231
              CHANNELS 3 Zrotation Xrotation Yrotation
              JOINT LeftArm
              {
                OFFSET 16.3182 6.10351e-005 0
                CHANNELS 3 Zrotation Xrotation Yrotation
                JOINT LeftForeArm
                {
                  OFFSET 27.0901 0 0
                  CHANNELS 3 Zrotation Xrotation Yrotation
                  JOINT LeftHand
                  {
                    OFFSET 24.5451 1.52588e-005 0
                    CHANNELS 3 Zrotation Xrotation Yrotation
                    End Site
                    {
                      OFFSET 0 0 0
                    }
                  }
                }
              }
            }
            JOINT Neck
            {
              OFFSET 5.0226 -0.0266342 0
              CHANNELS 3 Zrotation Xrotation Yrotation
              JOINT Head
              {
                OFFSET 6.69363 2.86102e-005 0
                CHANNELS 3 Zrotation Xrotation Yrotation
                End Site
                {
                  OFFSET 0 0 0
                }
              }
            }
          }
        }
      }
    }
  }
}
MOTION
Frames:	9
Frame Time:	0.0416667
-54.2238 88.456 -155.447 -81.9957 -84.2643 -89.3405 -173.462 13.7503 108.815 -19.0414 16.5663 4.0236 41.7962 -6.79055 6.21201 26.9841 -0.82902 -8.69575 -176.572 28.3252 78.3092 -54.2394 4.257 -10.1744 76.5605 -6.37614 -2.88218 54.0832 5.20774 22.1997 -0.176683 7.33315 -89.7996 12.2079 -0.256194 0.428533 0.536943 -0.237091 0.439401 -21.998 -0.373149 0.331731 -1.9854 -0.373158 0.331721 82.2234 -49.2272 -112.874 22.4511 -8.10907 4.98969 -9.45913 -12.5682 -45.9633 -17.7734 -1.44618 4.82403 -102.497 -43.0003 57.4044 -20.2385 -1.95961 12.606 7.23531 4.48945 -32.667 10.1818 0.781112 3.5418 8.19653 3.87112 5.50894 1.99727 3.11985 6.29715 
-56.4371 88.9871 -155.675 -76.9744 -83.8192 -85.0131 -173.499 13.9397 107.401 -18.8108 17.0062 3.97552 45.6855 -4.1598 7.84614 29.7796 2.03052 -10.7122 -176.076 28.4082 79.3028 -53.4694 4.85253 -10.2006 77.1436 -6.71811 -3.00492 52.588 4.90528 22.8106 -0.177771 7.31161 -89.7733 12.251 -0.245809 0.480154 0.579936 -0.224425 0.490502 -21.9549 -0.378742 0.384092 -1.94225 -0.378745 0.384078 81.7435 -49.259 -113.584 21.7597 -8.59187 5.74709 -9.05763 -12.2378 -46.3438 -17.4314 -1.28887 3.87684 -102.435 -43.3738 57.6696 -19.8625 -1.88683 12.541 7.53715 4.7028 -34.0787 10.6702 0.902992 4.30733 8.21943 3.98081 6.00124 2.32503 3.10228 5.81048 
-58.3305 89.755 -155.936 -70.7705 -83.3044 -79.4094 -173.225 14.2448 105.495 -17.7952 15.2341 3.47435 47.2284 -2.89629 8.58641 35.3484 7.14543 -13.554 -175.872 28.3823 80.0369 -51.8632 4.77962 -10.0958 77.1123 -6.6695 -2.98753 51.2558 4.73884 24.1578 -0.152103 7.29014 -89.7622 12.2938 -0.189502 0.495938 0.622763 -0.167487 0.5038 -21.9119 -0.329791 0.416063 -1.89928 -0.32979 0.416059 81.7259 -48.966 -113.721 21.2671 -8.90615 5.90596 -9.02248 -12.1145 -46.4439 -17.1306 -1.2944 4.06065 -102.76 -43.5015 57.2339 -19.6423 -2.48096 12.6668 8.3573 5.19358 -35.7519 10.8774 0.9093 4.22289 8.53056 4.09051 6.13444 2.65147 3.2006 6.05349 
-59.9554 90.5677 -156.103 -62.0158 -82.8928 -70.9959 -172.838 15.4542 103.334 -18.0953 12.9752 2.75494 49.4553 -1.60045 8.33059 38.965 10.537 -10.2308 -175.915 28.4524 80.7012 -49.9878 4.22824 -9.79013 77.0785 -6.62927 -2.97723 49.2981 4.34577 25.4403 -0.141722 7.22114 -89.7774 12.4318 -0.175745 0.464726 0.760756 -0.155128 0.472004 -21.774 -0.307291 0.390421 -1.76135 -0.307293 0.390417 81.3988 -49.4958 -114.01 19.7153 -9.25311 6.14019 -8.96964 -12.5275 -46.3413 -16.6571 -1.40981 5.16587 -102.98 -43.5278 56.912 -19.5632 -2.79052 12.6478 8.5677 4.88861 -37.1314 10.9419 0.918676 4.26012 9.14166 4.24183 6.19566 2.21879 3.29183 6.24334 
-61.3198 91.3568 -156.234 -58.4546 -82.6546 -67.5294 -172.128 15.7784 101.214 -17.8852 11.5231 1.77741 51.3279 0.257957 10.5403 42.3806 13.5742 -11.0417 -175.926 27.7746 81.5154 -47.8776 3.70541 -9.69012 76.4799 -6.3002 -2.8669 48.1496 4.07875 26.0404 -0.128237 7.225 -89.7939 12.424 -0.156805 0.429498 0.753002 -0.137749 0.435983 -21.7818 -0.278639 0.362524 -1.76915 -0.278646 0.362506 81.4919 -49.6972 -113.794 18.8905 -9.39798 5.90481 -8.66444 -12.8228 -45.4194 -16.1318 -1.30591 4.68075 -102.744 -43.418 57.2196 -19.6585 -2.62576 12.1598 8.20826 4.21101 -38.046 11.2278 0.888675 3.8279 9.5557 4.29162 5.89354 2.39915 3.40944 6.43828 
-62.4992 92.1911 -156.41 -55.5072 -82.7469 -64.5108 -171.484 16.2572 99.0864 -18.6127 7.18952 1.01108 54.3455 1.71293 7.8842 42.6253 14.0223 -9.29459 -176.165 26.6757 82.2991 -45.2206 3.46918 -9.40509 75.948 -6.06454 -2.7927 46.4953 3.68109 27.0014 -0.150707 7.23635 -89.8333 12.4015 -0.2202 0.35797 0.730519 -0.204231 0.367308 -21.8045 -0.317604 0.27524 -1.79189 -0.317604 0.275242 81.5864 -49.1987 -113.842 18.9167 -9.12705 6.23772 -8.1438 -12.9137 -44.9001 -16.0246 -1.32905 4.91401 -102.766 -43.4093 57.1814 -19.572 -2.59145 12.068 8.64168 4.50042 -39.6429 11.189 0.891751 3.87725 9.31785 4.22578 6.07508 2.88734 3.31901 6.11742 
-63.484 92.9642 -156.521 -54.0768 -83.0148 -63.0295 -171.196 16.3508 96.6977 -19.4375 5.492 0.295939 55.6296 2.84982 9.02001 44.5416 15.6587 -10.1989 -176.383 25.4473 82.9592 -42.8286 3.4073 -9.19855 74.9725 -5.65764 -2.65753 44.9603 3.26191 27.6384 -0.150697 7.26195 -89.8865 12.3502 -0.2455 0.254523 0.679202 -0.23406 0.26508 -21.856 -0.310646 0.168976 -1.84338 -0.310651 0.168975 81.87 -48.8446 -113.55 18.7189 -8.70719 6.38211 -7.88492 -12.8016 -43.9699 -15.2313 -1.29471 5.1162 -103.375 -43.6995 56.3941 -19.0878 -2.76567 12.0107 9.06754 4.65886 -40.981 11.5024 0.915237 3.87996 9.40024 4.05753 6.7151 2.68134 2.95767 5.64998 
-64.3173 93.6474 -156.599 -50.5443 -83.6352 -59.1826 -171.017 16.6667 94.5455 -20.6903 4.6814 -0.348423 57.3346 4.14661 9.52118 45.1548 16.4593 -8.79224 -176.833 24.1285 83.7034 -40.3125 3.7528 -8.77235 74.0698 -5.24229 -2.50802 43.5163 2.84826 28.1738 -0.18632 7.2652 -89.9109 12.3438 -0.327941 0.215102 0.672904 -0.318159 0.229318 -21.8625 -0.377419 0.106602 -1.8499 -0.377435 0.106584 81.8139 -49.1992 -113.5 18.3953 -8.36323 6.67594 -7.40489 -12.2568 -43.3285 -14.8244 -1.28624 5.29268 -103.4 -43.4353 56.2325 -18.8289 -2.92888 11.9841 9.7652 5.20683 -42.3282 11.8263 0.977521 4.1897 9.02061 3.82893 6.15465 2.83177 2.90069 5.81379 
-65.0582 94.2843 -156.619 -48.659 -84.0626 -56.852 -170.852 16.9047 92.588 -22.2953 4.28885 -0.948114 59.4019 5.70494 10.4537 46.811 17.7625 -10.0326 -176.933 22.7014 84.5494 -37.8868 3.30874 -8.50301 72.7459 -4.82677 -2.36511 42.6024 2.44003 26.3158 -0.21236 7.26491 -89.9573 12.3444 -0.401667 0.130871 0.673471 -0.395508 0.148425 -21.8622 -0.422432 0.00411277 -1.84953 -0.42243 0.0040978 81.708 -49.0209 -113.727 18.6212 -7.58132 7.2819 -7.61319 -12.5584 -42.8741 -14.0566 -1.20127 5.07941 -103.493 -43.3981 56.0748 -18.6376 -2.99239 11.9736 9.8454 5.0181 -43.2994 12.3986 0.981812 3.88874 8.38792 3.59206 5.80757 3.22476 2.78847 5.69671 
